<?xml version="1.0" encoding="UTF-8"?><svg xmlns="http://www.w3.org/2000/svg" xmlns:xlink="http://www.w3.org/1999/xlink" fill-opacity="1" color-rendering="auto" color-interpolation="auto" text-rendering="auto" stroke="black" stroke-linecap="square" width="1185" stroke-miterlimit="10" shape-rendering="auto" stroke-opacity="1" fill="black" stroke-dasharray="none" font-weight="normal" stroke-width="1" height="609" font-family="'Dialog'" font-style="normal" stroke-linejoin="miter" font-size="12px" stroke-dashoffset="0" image-rendering="auto">
  <!--Generated by ySVG 2.5-->
  <defs id="genericDefs"/>
  <g>
    <g text-rendering="geometricPrecision" shape-rendering="geometricPrecision" transform="matrix(1.4743,0,0,1.4523,36.7767,50)">
      <g clip-path="url(#clipPath3)">
        <svg xmlns:svg="http://www.w3.org/2000/svg" xmlns:sodipodi="http://sodipodi.sourceforge.net/DTD/sodipodi-0.dtd" xmlns:inkscape="http://www.inkscape.org/namespaces/inkscape" xmlns:dc="http://purl.org/dc/elements/1.1/" xmlns:cc="http://web.resource.org/cc/" xmlns:rdf="http://www.w3.org/1999/02/22-rdf-syntax-ns#" opacity="1" writing-mode="lr-tb" stop-color="rgb(0, 0, 0)" shape-rendering="auto" glyph-orientation-horizontal="0deg" color-profile="auto" lighting-color="rgb(255, 255, 255)" color="rgb(0, 0, 0)" font-weight="400" alignment-baseline="auto" font-style="normal" version="1.0" color-interpolation-filters="linearrgb" text-anchor="start" stroke-linecap="butt" color-interpolation="srgb" font-variant="normal" word-spacing="normal" fill-opacity="1" text-rendering="auto" clip-path="none" text-decoration="none" letter-spacing="normal" glyph-orientation-vertical="auto" display="inline" font-size-adjust="none" overflow="hidden" fill="rgb(0, 0, 0)" font-stretch="normal" stroke-dasharray="none" inkscape:version="0.45.1" id="svg1.svg2" stroke-miterlimit="4" stop-opacity="1" color-rendering="auto" font-size="12" sodipodi:docbase="C:\Daten\alberts\projects\yfx" pointer-events="visiblepainted" mask="none" direction="ltr" baseline-shift="baseline" sodipodi:docname="uml_actor.svg" enable-background="accumulate" fill-rule="nonzero" image-rendering="auto" stroke-dashoffset="0" inkscape:output_extension="org.inkscape.output.svg.inkscape" marker-end="none" width="41" clip="auto" cursor="auto" stroke="none" filter="none" visibility="visible" kerning="auto" stroke-width="1" font-family="&quot;Arial&quot;,&quot;Helvetica&quot;,sans-serif" flood-opacity="1" clip-rule="nonzero" src="none" height="68.997391" unicode-bidi="normal" sodipodi:version="0.32" stroke-linejoin="miter" stroke-opacity="1" flood-color="rgb(0, 0, 0)" dominant-baseline="auto" marker-start="none" marker-mid="none">
            
          <defs id="svg1.defs4">
            <clipPath clipPathUnits="userSpaceOnUse" id="clipPath1">
              <path d="M0 0 L1185 0 L1185 609 L0 609 L0 0 Z"/>
            </clipPath>
            <clipPath clipPathUnits="userSpaceOnUse" id="clipPath2">
              <path d="M240 50 L1425 50 L1425 659 L240 659 L240 50 Z"/>
            </clipPath>
            <clipPath clipPathUnits="userSpaceOnUse" id="clipPath3">
              <path d="M-24.945 -34.428 L778.8219 -34.428 L778.8219 384.9045 L-24.945 384.9045 L-24.945 -34.428 Z"/>
            </clipPath>
            <clipPath clipPathUnits="userSpaceOnUse" id="clipPath4">
              <path d="M-24.945 -179.0253 L778.8219 -179.0253 L778.8219 240.3071 L-24.945 240.3071 L-24.945 -179.0253 Z"/>
            </clipPath>
            <clipPath clipPathUnits="userSpaceOnUse" id="clipPath5">
              <path d="M-24.945 -323.6227 L778.8219 -323.6227 L778.8219 95.7097 L-24.945 95.7097 L-24.945 -323.6227 Z"/>
            </clipPath>
            <clipPath clipPathUnits="userSpaceOnUse" id="clipPath6">
              <path d="M-718.9734 -279.8123 L84.7934 -279.8123 L84.7934 139.5202 L-718.9734 139.5202 L-718.9734 -279.8123 Z"/>
            </clipPath>
          </defs>
            
  
          <metadata id="svg1.metadata7">
    
  </metadata>
            
          <g inkscape:groupmode="layer" id="svg1.layer1" transform="translate(-29.5,-42.959476)" inkscape:label="Ebene 1">
                
            <a id="svg1.a3142" transform="matrix(1.0873906,0,0,1,-4.4741999,0)">
                    
              <path transform="translate(11.586889,5.2908993)" style="fill:none;fill-rule:evenodd;stroke:#000000;stroke-width:1px;stroke-linecap:butt;stroke-linejoin:miter;stroke-opacity:1" sodipodi:cx="38.509369" sodipodi:cy="47.36993" sodipodi:rx="8.5197716" id="svg1.path2160" d="M 47.02914 47.36993 A 8.5197716 9.2013531 0 1 1  29.989597,47.36993 A 8.5197716 9.2013531 0 1 1  47.02914 47.36993 z" sodipodi:ry="9.2013531" sodipodi:type="arc"/>
                  
            </a>
                
            <path style="fill:none" sodipodi:cx="43.962021" sodipodi:cy="48.392303" d="M 47.71072 48.392303 A 3.7486994 0 0 1 1  40.213321,48.392303 A 3.7486994 0 0 1 1  47.71072 48.392303 z" id="svg1.path3134" sodipodi:rx="3.7486994" sodipodi:ry="0" sodipodi:type="arc"/>
                
            <path style="fill:none;fill-rule:evenodd;stroke:#000000;stroke-width:1.24319649px;stroke-linecap:butt;stroke-linejoin:miter;stroke-opacity:1" d="M 50,61.33709 C 50,91.363211 50,92.247838 50,92.247838" id="svg1.path3136"/>
                
            <path style="fill:none;fill-rule:evenodd;stroke:#000000;stroke-width:1px;stroke-linecap:butt;stroke-linejoin:miter;stroke-opacity:1" d="M 69.760668,72.362183 C 69.760668,72.362183 69.760668,72.362183 50.239332,72.362183 C 30.239332,72.362183 30.239332,72.362183 30.239332,72.362183 L 30.239332,72.362183" id="svg1.path3138"/>
                
            <path style="fill:none;fill-rule:evenodd;stroke:#000000;stroke-width:1px;stroke-linecap:butt;stroke-linejoin:miter;stroke-opacity:1" d="M 30,111.45687 C 30,111.45687 30,111.45687 50,92.013532 C 70,111.45687 70,111.45687 70,111.45687" id="svg1.path3140"/>
              
          </g>
          
        </svg>
      </g>
    </g>
    <g font-size="13px" stroke-linecap="butt" transform="matrix(1,0,0,1,-240,-50)" text-rendering="geometricPrecision" font-family="sans-serif" shape-rendering="geometricPrecision" stroke-miterlimit="1.45">
      <text x="277.8547" xml:space="preserve" y="219.0698" clip-path="url(#clipPath2)" stroke="none">Водитель</text>
    </g>
    <g text-rendering="geometricPrecision" shape-rendering="geometricPrecision" transform="matrix(1.4743,0,0,1.4523,36.7767,260)">
      <g clip-path="url(#clipPath4)">
        <svg xmlns:svg="http://www.w3.org/2000/svg" xmlns:sodipodi="http://sodipodi.sourceforge.net/DTD/sodipodi-0.dtd" xmlns:inkscape="http://www.inkscape.org/namespaces/inkscape" xmlns:dc="http://purl.org/dc/elements/1.1/" xmlns:cc="http://web.resource.org/cc/" xmlns:rdf="http://www.w3.org/1999/02/22-rdf-syntax-ns#" opacity="1" writing-mode="lr-tb" stop-color="rgb(0, 0, 0)" shape-rendering="auto" glyph-orientation-horizontal="0deg" color-profile="auto" lighting-color="rgb(255, 255, 255)" color="rgb(0, 0, 0)" font-weight="400" alignment-baseline="auto" font-style="normal" version="1.0" color-interpolation-filters="linearrgb" text-anchor="start" stroke-linecap="butt" color-interpolation="srgb" font-variant="normal" word-spacing="normal" fill-opacity="1" text-rendering="auto" clip-path="none" text-decoration="none" letter-spacing="normal" glyph-orientation-vertical="auto" display="inline" font-size-adjust="none" overflow="hidden" fill="rgb(0, 0, 0)" font-stretch="normal" stroke-dasharray="none" inkscape:version="0.45.1" id="svg2.svg2" stroke-miterlimit="4" stop-opacity="1" color-rendering="auto" font-size="12" sodipodi:docbase="C:\Daten\alberts\projects\yfx" pointer-events="visiblepainted" mask="none" direction="ltr" baseline-shift="baseline" sodipodi:docname="uml_actor.svg" enable-background="accumulate" fill-rule="nonzero" image-rendering="auto" stroke-dashoffset="0" inkscape:output_extension="org.inkscape.output.svg.inkscape" marker-end="none" width="41" clip="auto" cursor="auto" stroke="none" filter="none" visibility="visible" kerning="auto" stroke-width="1" font-family="&quot;Arial&quot;,&quot;Helvetica&quot;,sans-serif" flood-opacity="1" clip-rule="nonzero" src="none" height="68.997391" unicode-bidi="normal" sodipodi:version="0.32" stroke-linejoin="miter" stroke-opacity="1" flood-color="rgb(0, 0, 0)" dominant-baseline="auto" marker-start="none" marker-mid="none">
            
          <defs id="svg2.defs4"/>
            
  
          <metadata id="svg2.metadata7">
    
  </metadata>
            
          <g inkscape:groupmode="layer" id="svg2.layer1" transform="translate(-29.5,-42.959476)" inkscape:label="Ebene 1">
                
            <a id="svg2.a3142" transform="matrix(1.0873906,0,0,1,-4.4741999,0)">
                    
              <path transform="translate(11.586889,5.2908993)" style="fill:none;fill-rule:evenodd;stroke:#000000;stroke-width:1px;stroke-linecap:butt;stroke-linejoin:miter;stroke-opacity:1" sodipodi:cx="38.509369" sodipodi:cy="47.36993" sodipodi:rx="8.5197716" id="svg2.path2160" d="M 47.02914 47.36993 A 8.5197716 9.2013531 0 1 1  29.989597,47.36993 A 8.5197716 9.2013531 0 1 1  47.02914 47.36993 z" sodipodi:ry="9.2013531" sodipodi:type="arc"/>
                  
            </a>
                
            <path style="fill:none" sodipodi:cx="43.962021" sodipodi:cy="48.392303" d="M 47.71072 48.392303 A 3.7486994 0 0 1 1  40.213321,48.392303 A 3.7486994 0 0 1 1  47.71072 48.392303 z" id="svg2.path3134" sodipodi:rx="3.7486994" sodipodi:ry="0" sodipodi:type="arc"/>
                
            <path style="fill:none;fill-rule:evenodd;stroke:#000000;stroke-width:1.24319649px;stroke-linecap:butt;stroke-linejoin:miter;stroke-opacity:1" d="M 50,61.33709 C 50,91.363211 50,92.247838 50,92.247838" id="svg2.path3136"/>
                
            <path style="fill:none;fill-rule:evenodd;stroke:#000000;stroke-width:1px;stroke-linecap:butt;stroke-linejoin:miter;stroke-opacity:1" d="M 69.760668,72.362183 C 69.760668,72.362183 69.760668,72.362183 50.239332,72.362183 C 30.239332,72.362183 30.239332,72.362183 30.239332,72.362183 L 30.239332,72.362183" id="svg2.path3138"/>
                
            <path style="fill:none;fill-rule:evenodd;stroke:#000000;stroke-width:1px;stroke-linecap:butt;stroke-linejoin:miter;stroke-opacity:1" d="M 30,111.45687 C 30,111.45687 30,111.45687 50,92.013532 C 70,111.45687 70,111.45687 70,111.45687" id="svg2.path3140"/>
              
          </g>
          
        </svg>
      </g>
    </g>
    <g font-size="13px" stroke-linecap="butt" transform="matrix(1,0,0,1,-240,-50)" text-rendering="geometricPrecision" font-family="sans-serif" shape-rendering="geometricPrecision" stroke-miterlimit="1.45">
      <text x="259.8877" xml:space="preserve" y="429.0698" clip-path="url(#clipPath2)" stroke="none">Администратор</text>
    </g>
    <g text-rendering="geometricPrecision" shape-rendering="geometricPrecision" transform="matrix(1.4743,0,0,1.4523,36.7767,470)">
      <g clip-path="url(#clipPath5)">
        <svg xmlns:svg="http://www.w3.org/2000/svg" xmlns:sodipodi="http://sodipodi.sourceforge.net/DTD/sodipodi-0.dtd" xmlns:inkscape="http://www.inkscape.org/namespaces/inkscape" xmlns:dc="http://purl.org/dc/elements/1.1/" xmlns:cc="http://web.resource.org/cc/" xmlns:rdf="http://www.w3.org/1999/02/22-rdf-syntax-ns#" opacity="1" writing-mode="lr-tb" stop-color="rgb(0, 0, 0)" shape-rendering="auto" glyph-orientation-horizontal="0deg" color-profile="auto" lighting-color="rgb(255, 255, 255)" color="rgb(0, 0, 0)" font-weight="400" alignment-baseline="auto" font-style="normal" version="1.0" color-interpolation-filters="linearrgb" text-anchor="start" stroke-linecap="butt" color-interpolation="srgb" font-variant="normal" word-spacing="normal" fill-opacity="1" text-rendering="auto" clip-path="none" text-decoration="none" letter-spacing="normal" glyph-orientation-vertical="auto" display="inline" font-size-adjust="none" overflow="hidden" fill="rgb(0, 0, 0)" font-stretch="normal" stroke-dasharray="none" inkscape:version="0.45.1" id="svg3.svg2" stroke-miterlimit="4" stop-opacity="1" color-rendering="auto" font-size="12" sodipodi:docbase="C:\Daten\alberts\projects\yfx" pointer-events="visiblepainted" mask="none" direction="ltr" baseline-shift="baseline" sodipodi:docname="uml_actor.svg" enable-background="accumulate" fill-rule="nonzero" image-rendering="auto" stroke-dashoffset="0" inkscape:output_extension="org.inkscape.output.svg.inkscape" marker-end="none" width="41" clip="auto" cursor="auto" stroke="none" filter="none" visibility="visible" kerning="auto" stroke-width="1" font-family="&quot;Arial&quot;,&quot;Helvetica&quot;,sans-serif" flood-opacity="1" clip-rule="nonzero" src="none" height="68.997391" unicode-bidi="normal" sodipodi:version="0.32" stroke-linejoin="miter" stroke-opacity="1" flood-color="rgb(0, 0, 0)" dominant-baseline="auto" marker-start="none" marker-mid="none">
            
          <defs id="svg3.defs4"/>
            
  
          <metadata id="svg3.metadata7">
    
  </metadata>
            
          <g inkscape:groupmode="layer" id="svg3.layer1" transform="translate(-29.5,-42.959476)" inkscape:label="Ebene 1">
                
            <a id="svg3.a3142" transform="matrix(1.0873906,0,0,1,-4.4741999,0)">
                    
              <path transform="translate(11.586889,5.2908993)" style="fill:none;fill-rule:evenodd;stroke:#000000;stroke-width:1px;stroke-linecap:butt;stroke-linejoin:miter;stroke-opacity:1" sodipodi:cx="38.509369" sodipodi:cy="47.36993" sodipodi:rx="8.5197716" id="svg3.path2160" d="M 47.02914 47.36993 A 8.5197716 9.2013531 0 1 1  29.989597,47.36993 A 8.5197716 9.2013531 0 1 1  47.02914 47.36993 z" sodipodi:ry="9.2013531" sodipodi:type="arc"/>
                  
            </a>
                
            <path style="fill:none" sodipodi:cx="43.962021" sodipodi:cy="48.392303" d="M 47.71072 48.392303 A 3.7486994 0 0 1 1  40.213321,48.392303 A 3.7486994 0 0 1 1  47.71072 48.392303 z" id="svg3.path3134" sodipodi:rx="3.7486994" sodipodi:ry="0" sodipodi:type="arc"/>
                
            <path style="fill:none;fill-rule:evenodd;stroke:#000000;stroke-width:1.24319649px;stroke-linecap:butt;stroke-linejoin:miter;stroke-opacity:1" d="M 50,61.33709 C 50,91.363211 50,92.247838 50,92.247838" id="svg3.path3136"/>
                
            <path style="fill:none;fill-rule:evenodd;stroke:#000000;stroke-width:1px;stroke-linecap:butt;stroke-linejoin:miter;stroke-opacity:1" d="M 69.760668,72.362183 C 69.760668,72.362183 69.760668,72.362183 50.239332,72.362183 C 30.239332,72.362183 30.239332,72.362183 30.239332,72.362183 L 30.239332,72.362183" id="svg3.path3138"/>
                
            <path style="fill:none;fill-rule:evenodd;stroke:#000000;stroke-width:1px;stroke-linecap:butt;stroke-linejoin:miter;stroke-opacity:1" d="M 30,111.45687 C 30,111.45687 30,111.45687 50,92.013532 C 70,111.45687 70,111.45687 70,111.45687" id="svg3.path3140"/>
              
          </g>
          
        </svg>
      </g>
    </g>
    <g font-size="13px" stroke-linecap="butt" transform="matrix(1,0,0,1,-240,-50)" text-rendering="geometricPrecision" font-family="sans-serif" shape-rendering="geometricPrecision" stroke-miterlimit="1.45">
      <text x="277.8103" xml:space="preserve" y="639.0698" clip-path="url(#clipPath2)" stroke="none">Охранник</text>
    </g>
    <g fill="white" text-rendering="geometricPrecision" shape-rendering="geometricPrecision" transform="matrix(1,0,0,1,-240,-50)" stroke="white">
      <ellipse rx="55" ry="25" clip-path="url(#clipPath2)" cx="450" cy="259" stroke="none"/>
    </g>
    <g font-size="13px" stroke-linecap="butt" transform="matrix(1,0,0,1,-240,-50)" text-rendering="geometricPrecision" font-family="sans-serif" shape-rendering="geometricPrecision" stroke-miterlimit="1.45">
      <text x="408.3879" xml:space="preserve" y="256.1436" clip-path="url(#clipPath2)" stroke="none">Просмотреть </text>
      <text x="429.2939" xml:space="preserve" y="272.0698" clip-path="url(#clipPath2)" stroke="none">заказы</text>
      <ellipse rx="55" fill="none" ry="25" clip-path="url(#clipPath2)" cx="450" cy="259"/>
    </g>
    <g fill="white" text-rendering="geometricPrecision" shape-rendering="geometricPrecision" transform="matrix(1,0,0,1,-240,-50)" stroke="white">
      <ellipse rx="55" ry="25" clip-path="url(#clipPath2)" cx="450" cy="504.6831" stroke="none"/>
    </g>
    <g font-size="13px" stroke-linecap="butt" transform="matrix(1,0,0,1,-240,-50)" text-rendering="geometricPrecision" font-family="sans-serif" shape-rendering="geometricPrecision" stroke-miterlimit="1.45">
      <text x="408.3879" xml:space="preserve" y="501.8267" clip-path="url(#clipPath2)" stroke="none">Просмотреть </text>
      <text x="429.3733" xml:space="preserve" y="517.7529" clip-path="url(#clipPath2)" stroke="none">записи</text>
      <ellipse rx="55" fill="none" ry="25" clip-path="url(#clipPath2)" cx="450" cy="504.6831"/>
    </g>
    <g fill="white" text-rendering="geometricPrecision" shape-rendering="geometricPrecision" transform="matrix(1,0,0,1,-240,-50)" stroke="white">
      <ellipse rx="55" ry="25" clip-path="url(#clipPath2)" cx="570.6285" cy="504.6831" stroke="none"/>
    </g>
    <g font-size="13px" stroke-linecap="butt" transform="matrix(1,0,0,1,-240,-50)" text-rendering="geometricPrecision" font-family="sans-serif" shape-rendering="geometricPrecision" stroke-miterlimit="1.45">
      <text x="545.5679" xml:space="preserve" y="501.8267" clip-path="url(#clipPath2)" stroke="none">Создать</text>
      <text x="550.2462" xml:space="preserve" y="517.7529" clip-path="url(#clipPath2)" stroke="none">запись</text>
      <ellipse rx="55" fill="none" ry="25" clip-path="url(#clipPath2)" cx="570.6285" cy="504.6831"/>
    </g>
    <g fill="white" text-rendering="geometricPrecision" shape-rendering="geometricPrecision" transform="matrix(1,0,0,1,-240,-50)" stroke="white">
      <ellipse rx="55" ry="25" clip-path="url(#clipPath2)" cx="545" cy="414.5133" stroke="none"/>
    </g>
    <g font-size="13px" stroke-linecap="butt" transform="matrix(1,0,0,1,-240,-50)" text-rendering="geometricPrecision" font-family="sans-serif" shape-rendering="geometricPrecision" stroke-miterlimit="1.45">
      <text x="513.1252" xml:space="preserve" y="411.6568" clip-path="url(#clipPath2)" stroke="none">Назначить</text>
      <text x="528.9658" xml:space="preserve" y="427.5831" clip-path="url(#clipPath2)" stroke="none">заказ</text>
      <ellipse rx="55" fill="none" ry="25" clip-path="url(#clipPath2)" cx="545" cy="414.5133"/>
    </g>
    <g fill="white" text-rendering="geometricPrecision" shape-rendering="geometricPrecision" transform="matrix(1,0,0,1,-240,-50)" stroke="white">
      <ellipse rx="55" ry="25" clip-path="url(#clipPath2)" cx="450" cy="90" stroke="none"/>
    </g>
    <g font-size="13px" stroke-linecap="butt" transform="matrix(1,0,0,1,-240,-50)" text-rendering="geometricPrecision" font-family="sans-serif" shape-rendering="geometricPrecision" stroke-miterlimit="1.45">
      <text x="421.8704" xml:space="preserve" y="87.1436" clip-path="url(#clipPath2)" stroke="none">Выбрать </text>
      <text x="433.9658" xml:space="preserve" y="103.0698" clip-path="url(#clipPath2)" stroke="none">заказ</text>
      <ellipse rx="55" fill="none" ry="25" clip-path="url(#clipPath2)" cx="450" cy="90"/>
    </g>
    <g fill="white" text-rendering="geometricPrecision" shape-rendering="geometricPrecision" transform="matrix(1,0,0,1,-240,-50)" stroke="white">
      <ellipse rx="69.4175" ry="30" clip-path="url(#clipPath2)" cx="1120.9112" cy="215" stroke="none"/>
    </g>
    <g font-size="13px" stroke-linecap="butt" transform="matrix(1,0,0,1,-240,-50)" text-rendering="geometricPrecision" font-family="sans-serif" shape-rendering="geometricPrecision" stroke-miterlimit="1.45">
      <text x="1082.9142" xml:space="preserve" y="204.1804" clip-path="url(#clipPath2)" stroke="none">Посмотреть </text>
      <text x="1086.7037" xml:space="preserve" y="220.1067" clip-path="url(#clipPath2)" stroke="none">статистику </text>
      <text x="1097.809" xml:space="preserve" y="236.033" clip-path="url(#clipPath2)" stroke="none">заказов</text>
      <ellipse rx="69.4175" fill="none" ry="30" clip-path="url(#clipPath2)" cx="1120.9112" cy="215"/>
    </g>
    <g fill="white" text-rendering="geometricPrecision" shape-rendering="geometricPrecision" transform="matrix(1,0,0,1,-240,-50)" stroke="white">
      <ellipse rx="55" ry="25" clip-path="url(#clipPath2)" cx="672.5" cy="414.5133" stroke="none"/>
    </g>
    <g font-size="13px" stroke-linecap="butt" transform="matrix(1,0,0,1,-240,-50)" text-rendering="geometricPrecision" font-family="sans-serif" shape-rendering="geometricPrecision" stroke-miterlimit="1.45">
      <text x="647.4395" xml:space="preserve" y="411.6568" clip-path="url(#clipPath2)" stroke="none">Создать</text>
      <text x="656.4658" xml:space="preserve" y="427.5831" clip-path="url(#clipPath2)" stroke="none">заказ</text>
      <ellipse rx="55" fill="none" ry="25" clip-path="url(#clipPath2)" cx="672.5" cy="414.5133"/>
    </g>
    <g fill="white" text-rendering="geometricPrecision" shape-rendering="geometricPrecision" transform="matrix(1,0,0,1,-240,-50)" stroke="white">
      <ellipse rx="55" ry="25" clip-path="url(#clipPath2)" cx="1135.3287" cy="317.4833" stroke="none"/>
    </g>
    <g font-size="13px" stroke-linecap="butt" transform="matrix(1,0,0,1,-240,-50)" text-rendering="geometricPrecision" font-family="sans-serif" shape-rendering="geometricPrecision" stroke-miterlimit="1.45">
      <text x="1116.0826" xml:space="preserve" y="322.59" clip-path="url(#clipPath2)" stroke="none">Выйти</text>
      <ellipse rx="55" fill="none" ry="25" clip-path="url(#clipPath2)" cx="1135.3287" cy="317.4833"/>
    </g>
    <g fill="white" text-rendering="geometricPrecision" shape-rendering="geometricPrecision" transform="matrix(1,0,0,1,-240,-50)" stroke="white">
      <ellipse rx="55" ry="30.8449" clip-path="url(#clipPath2)" cx="1135.3287" cy="385.8449" stroke="none"/>
    </g>
    <g font-size="13px" stroke-linecap="butt" transform="matrix(1,0,0,1,-240,-50)" text-rendering="geometricPrecision" font-family="sans-serif" shape-rendering="geometricPrecision" stroke-miterlimit="1.45">
      <text x="1097.3317" xml:space="preserve" y="375.0254" clip-path="url(#clipPath2)" stroke="none">Посмотреть </text>
      <text x="1096.7477" xml:space="preserve" y="390.9516" clip-path="url(#clipPath2)" stroke="none">рассписание</text>
      <text x="1107.0277" xml:space="preserve" y="406.8779" clip-path="url(#clipPath2)" stroke="none">дежурств</text>
      <ellipse rx="55" fill="none" ry="30.8449" clip-path="url(#clipPath2)" cx="1135.3287" cy="385.8449"/>
    </g>
    <g fill="white" text-rendering="geometricPrecision" shape-rendering="geometricPrecision" transform="matrix(1,0,0,1,-240,-50)" stroke="white">
      <ellipse rx="69.4175" ry="30" clip-path="url(#clipPath2)" cx="1274.2462" cy="160.6595" stroke="none"/>
    </g>
    <g font-size="13px" stroke-linecap="butt" transform="matrix(1,0,0,1,-240,-50)" text-rendering="geometricPrecision" font-family="sans-serif" shape-rendering="geometricPrecision" stroke-miterlimit="1.45">
      <text x="1236.2491" xml:space="preserve" y="149.8399" clip-path="url(#clipPath2)" stroke="none">Посмотреть </text>
      <text x="1253.5402" xml:space="preserve" y="165.7662" clip-path="url(#clipPath2)" stroke="none">заказы</text>
      <text x="1244.0441" xml:space="preserve" y="181.6924" clip-path="url(#clipPath2)" stroke="none"> водителя</text>
      <ellipse rx="69.4175" fill="none" ry="30" clip-path="url(#clipPath2)" cx="1274.2462" cy="160.6595"/>
    </g>
    <g fill="white" text-rendering="geometricPrecision" shape-rendering="geometricPrecision" transform="matrix(1,0,0,1,-240,-50)" stroke="white">
      <ellipse rx="69.4175" ry="30" clip-path="url(#clipPath2)" cx="1274.2462" cy="275" stroke="none"/>
    </g>
    <g font-size="13px" stroke-linecap="butt" transform="matrix(1,0,0,1,-240,-50)" text-rendering="geometricPrecision" font-family="sans-serif" shape-rendering="geometricPrecision" stroke-miterlimit="1.45">
      <text x="1236.2491" xml:space="preserve" y="264.1804" clip-path="url(#clipPath2)" stroke="none">Посмотреть </text>
      <text x="1224.1759" xml:space="preserve" y="280.1067" clip-path="url(#clipPath2)" stroke="none">необслуженные </text>
      <text x="1253.5402" xml:space="preserve" y="296.033" clip-path="url(#clipPath2)" stroke="none">заказы</text>
      <ellipse rx="69.4175" fill="none" ry="30" clip-path="url(#clipPath2)" cx="1274.2462" cy="275"/>
    </g>
    <g fill="white" text-rendering="geometricPrecision" shape-rendering="geometricPrecision" transform="matrix(1,0,0,1,-240,-50)" stroke="white">
      <ellipse rx="79.5" ry="25" clip-path="url(#clipPath2)" cx="1330.2116" cy="393.6217" stroke="none"/>
    </g>
    <g font-size="13px" stroke-linecap="butt" transform="matrix(1,0,0,1,-240,-50)" text-rendering="geometricPrecision" font-family="sans-serif" shape-rendering="geometricPrecision" stroke-miterlimit="1.45">
      <text x="1266.7288" xml:space="preserve" y="398.7284" clip-path="url(#clipPath2)" stroke="none">Зарегистрироваться </text>
      <ellipse rx="79.5" fill="none" ry="25" clip-path="url(#clipPath2)" cx="1330.2116" cy="393.6217"/>
    </g>
    <g fill="white" text-rendering="geometricPrecision" shape-rendering="geometricPrecision" transform="matrix(1,0,0,1,-240,-50)" stroke="white">
      <ellipse rx="55" ry="25" clip-path="url(#clipPath2)" cx="570.6285" cy="609.2253" stroke="none"/>
    </g>
    <g font-size="13px" stroke-linecap="butt" transform="matrix(1,0,0,1,-240,-50)" text-rendering="geometricPrecision" font-family="sans-serif" shape-rendering="geometricPrecision" stroke-miterlimit="1.45">
      <text x="552.0806" xml:space="preserve" y="606.3688" clip-path="url(#clipPath2)" stroke="none">Найти</text>
      <text x="546.8597" xml:space="preserve" y="622.2951" clip-path="url(#clipPath2)" stroke="none">машину</text>
      <ellipse rx="55" fill="none" ry="25" clip-path="url(#clipPath2)" cx="570.6285" cy="609.2253"/>
    </g>
    <g fill="white" text-rendering="geometricPrecision" shape-rendering="geometricPrecision" transform="matrix(1,0,0,1,-240,-50)" stroke="white">
      <ellipse rx="69.4175" ry="30" clip-path="url(#clipPath2)" cx="604.4175" cy="208.3955" stroke="none"/>
    </g>
    <g font-size="13px" stroke-linecap="butt" transform="matrix(1,0,0,1,-240,-50)" text-rendering="geometricPrecision" font-family="sans-serif" shape-rendering="geometricPrecision" stroke-miterlimit="1.45">
      <text x="568.2264" xml:space="preserve" y="197.576" clip-path="url(#clipPath2)" stroke="none">Посмотреть</text>
      <text x="562.5008" xml:space="preserve" y="213.5022" clip-path="url(#clipPath2)" stroke="none">информацию </text>
      <text x="561.5677" xml:space="preserve" y="229.4285" clip-path="url(#clipPath2)" stroke="none">о сотрудниках</text>
      <ellipse rx="69.4175" fill="none" ry="30" clip-path="url(#clipPath2)" cx="604.4175" cy="208.3955"/>
    </g>
    <g fill="white" text-rendering="geometricPrecision" shape-rendering="geometricPrecision" transform="matrix(1,0,0,1,-240,-50)" stroke="white">
      <ellipse rx="69.4175" ry="27.5" clip-path="url(#clipPath2)" cx="751.6542" cy="205.8101" stroke="none"/>
    </g>
    <g font-size="13px" stroke-linecap="butt" transform="matrix(1,0,0,1,-240,-50)" text-rendering="geometricPrecision" font-family="sans-serif" shape-rendering="geometricPrecision" stroke-miterlimit="1.45">
      <text x="699.4638" xml:space="preserve" y="202.9537" clip-path="url(#clipPath2)" stroke="none">Верифицировать</text>
      <text x="712.7368" xml:space="preserve" y="218.8799" clip-path="url(#clipPath2)" stroke="none">регистрацию</text>
      <ellipse rx="69.4175" fill="none" ry="27.5" clip-path="url(#clipPath2)" cx="751.6542" cy="205.8101"/>
    </g>
    <g fill="white" text-rendering="geometricPrecision" shape-rendering="geometricPrecision" transform="matrix(1,0,0,1,-240,-50)" stroke="white">
      <ellipse rx="69.4175" ry="27.5" clip-path="url(#clipPath2)" cx="604.4175" cy="281.2648" stroke="none"/>
    </g>
    <g font-size="13px" stroke-linecap="butt" transform="matrix(1,0,0,1,-240,-50)" text-rendering="geometricPrecision" font-family="sans-serif" shape-rendering="geometricPrecision" stroke-miterlimit="1.45">
      <text x="566.4205" xml:space="preserve" y="270.4452" clip-path="url(#clipPath2)" stroke="none">Посмотреть </text>
      <text x="575.3643" xml:space="preserve" y="286.3715" clip-path="url(#clipPath2)" stroke="none">заявки на</text>
      <text x="565.5001" xml:space="preserve" y="302.2977" clip-path="url(#clipPath2)" stroke="none">регистрацию</text>
      <ellipse rx="69.4175" fill="none" ry="27.5" clip-path="url(#clipPath2)" cx="604.4175" cy="281.2648"/>
    </g>
    <g fill="white" text-rendering="geometricPrecision" shape-rendering="geometricPrecision" transform="matrix(1,0,0,1,-240,-50)" stroke="white">
      <ellipse rx="55" ry="25" clip-path="url(#clipPath2)" cx="806.25" cy="414.5133" stroke="none"/>
    </g>
    <g font-size="13px" stroke-linecap="butt" transform="matrix(1,0,0,1,-240,-50)" text-rendering="geometricPrecision" font-family="sans-serif" shape-rendering="geometricPrecision" stroke-miterlimit="1.45">
      <text x="781.1895" xml:space="preserve" y="411.6568" clip-path="url(#clipPath2)" stroke="none">Создать</text>
      <text x="793.1199" xml:space="preserve" y="427.5831" clip-path="url(#clipPath2)" stroke="none">КПП</text>
      <ellipse rx="55" fill="none" ry="25" clip-path="url(#clipPath2)" cx="806.25" cy="414.5133"/>
    </g>
    <g fill="white" text-rendering="geometricPrecision" shape-rendering="geometricPrecision" transform="matrix(1,0,0,1,-240,-50)" stroke="white">
      <ellipse rx="55" ry="25" clip-path="url(#clipPath2)" cx="926.8351" cy="275" stroke="none"/>
    </g>
    <g font-size="13px" stroke-linecap="butt" transform="matrix(1,0,0,1,-240,-50)" text-rendering="geometricPrecision" font-family="sans-serif" shape-rendering="geometricPrecision" stroke-miterlimit="1.45">
      <text x="901.7745" xml:space="preserve" y="272.1436" clip-path="url(#clipPath2)" stroke="none">Создать</text>
      <text x="903.0663" xml:space="preserve" y="288.0698" clip-path="url(#clipPath2)" stroke="none">машину</text>
      <ellipse rx="55" fill="none" ry="25" clip-path="url(#clipPath2)" cx="926.8351" cy="275"/>
    </g>
    <g fill="white" text-rendering="geometricPrecision" shape-rendering="geometricPrecision" transform="matrix(1,0,0,1,-240,-50)" stroke="white">
      <ellipse rx="55" ry="25" clip-path="url(#clipPath2)" cx="704.64" cy="504.6831" stroke="none"/>
    </g>
    <g font-size="13px" stroke-linecap="butt" transform="matrix(1,0,0,1,-240,-50)" text-rendering="geometricPrecision" font-family="sans-serif" shape-rendering="geometricPrecision" stroke-miterlimit="1.45">
      <text x="666.6429" xml:space="preserve" y="501.8267" clip-path="url(#clipPath2)" stroke="none">Посмотреть </text>
      <text x="691.5099" xml:space="preserve" y="517.7529" clip-path="url(#clipPath2)" stroke="none">КПП</text>
      <ellipse rx="55" fill="none" ry="25" clip-path="url(#clipPath2)" cx="704.64" cy="504.6831"/>
    </g>
    <g fill="white" text-rendering="geometricPrecision" shape-rendering="geometricPrecision" transform="matrix(1,0,0,1,-240,-50)" stroke="white">
      <ellipse rx="55" ry="25" clip-path="url(#clipPath2)" cx="884.4734" cy="195" stroke="none"/>
    </g>
    <g font-size="13px" stroke-linecap="butt" transform="matrix(1,0,0,1,-240,-50)" text-rendering="geometricPrecision" font-family="sans-serif" shape-rendering="geometricPrecision" stroke-miterlimit="1.45">
      <text x="846.4763" xml:space="preserve" y="192.1436" clip-path="url(#clipPath2)" stroke="none">Посмотреть </text>
      <text x="859.2827" xml:space="preserve" y="208.0698" clip-path="url(#clipPath2)" stroke="none">машины</text>
      <ellipse rx="55" fill="none" ry="25" clip-path="url(#clipPath2)" cx="884.4734" cy="195"/>
    </g>
    <g fill="white" text-rendering="geometricPrecision" shape-rendering="geometricPrecision" transform="matrix(1,0,0,1,-240,-50)" stroke="white">
      <ellipse rx="69.4175" ry="27.5" clip-path="url(#clipPath2)" cx="772.4175" cy="281.2648" stroke="none"/>
    </g>
    <g font-size="13px" stroke-linecap="butt" transform="matrix(1,0,0,1,-240,-50)" text-rendering="geometricPrecision" font-family="sans-serif" shape-rendering="geometricPrecision" stroke-miterlimit="1.45">
      <text x="740.5491" xml:space="preserve" y="278.4083" clip-path="url(#clipPath2)" stroke="none">Отклонить</text>
      <text x="733.5001" xml:space="preserve" y="294.3346" clip-path="url(#clipPath2)" stroke="none">регистрацию</text>
      <ellipse rx="69.4175" fill="none" ry="27.5" clip-path="url(#clipPath2)" cx="772.4175" cy="281.2648"/>
    </g>
    <g fill="white" text-rendering="geometricPrecision" shape-rendering="geometricPrecision" transform="matrix(1,0,0,1,-240,-50)" stroke="white">
      <ellipse rx="55" ry="25" clip-path="url(#clipPath2)" cx="940" cy="414.5133" stroke="none"/>
    </g>
    <g font-size="13px" stroke-linecap="butt" transform="matrix(1,0,0,1,-240,-50)" text-rendering="geometricPrecision" font-family="sans-serif" shape-rendering="geometricPrecision" stroke-miterlimit="1.45">
      <text x="914.9395" xml:space="preserve" y="411.6568" clip-path="url(#clipPath2)" stroke="none">Создать</text>
      <text x="908.084" xml:space="preserve" y="427.5831" clip-path="url(#clipPath2)" stroke="none">дежурство</text>
      <ellipse rx="55" fill="none" ry="25" clip-path="url(#clipPath2)" cx="940" cy="414.5133"/>
    </g>
    <g fill="white" text-rendering="geometricPrecision" shape-rendering="geometricPrecision" transform="matrix(1,0,0,1,-240,-50)" stroke="white">
      <ellipse rx="55" ry="25" clip-path="url(#clipPath2)" cx="310" cy="268.43" stroke="none"/>
    </g>
    <g font-size="13px" stroke-linecap="butt" transform="matrix(1,0,0,1,-240,-50)" text-rendering="geometricPrecision" font-family="sans-serif" shape-rendering="geometricPrecision" stroke-miterlimit="1.45">
      <text x="274.761" xml:space="preserve" y="265.5735" clip-path="url(#clipPath2)" stroke="none">Завершить </text>
      <text x="293.9658" xml:space="preserve" y="281.4998" clip-path="url(#clipPath2)" stroke="none">заказ</text>
      <ellipse rx="55" fill="none" ry="25" clip-path="url(#clipPath2)" cx="310" cy="268.43"/>
    </g>
    <g text-rendering="geometricPrecision" shape-rendering="geometricPrecision" transform="matrix(1.4743,0,0,1.4523,1059.9883,406.3737)">
      <g clip-path="url(#clipPath6)">
        <svg xmlns:svg="http://www.w3.org/2000/svg" xmlns:sodipodi="http://sodipodi.sourceforge.net/DTD/sodipodi-0.dtd" xmlns:inkscape="http://www.inkscape.org/namespaces/inkscape" xmlns:dc="http://purl.org/dc/elements/1.1/" xmlns:cc="http://web.resource.org/cc/" xmlns:rdf="http://www.w3.org/1999/02/22-rdf-syntax-ns#" opacity="1" writing-mode="lr-tb" stop-color="rgb(0, 0, 0)" shape-rendering="auto" glyph-orientation-horizontal="0deg" color-profile="auto" lighting-color="rgb(255, 255, 255)" color="rgb(0, 0, 0)" font-weight="400" alignment-baseline="auto" font-style="normal" version="1.0" color-interpolation-filters="linearrgb" text-anchor="start" stroke-linecap="butt" color-interpolation="srgb" font-variant="normal" word-spacing="normal" fill-opacity="1" text-rendering="auto" clip-path="none" text-decoration="none" letter-spacing="normal" glyph-orientation-vertical="auto" display="inline" font-size-adjust="none" overflow="hidden" fill="rgb(0, 0, 0)" font-stretch="normal" stroke-dasharray="none" inkscape:version="0.45.1" id="svg4.svg2" stroke-miterlimit="4" stop-opacity="1" color-rendering="auto" font-size="12" sodipodi:docbase="C:\Daten\alberts\projects\yfx" pointer-events="visiblepainted" mask="none" direction="ltr" baseline-shift="baseline" sodipodi:docname="uml_actor.svg" enable-background="accumulate" fill-rule="nonzero" image-rendering="auto" stroke-dashoffset="0" inkscape:output_extension="org.inkscape.output.svg.inkscape" marker-end="none" width="41" clip="auto" cursor="auto" stroke="none" filter="none" visibility="visible" kerning="auto" stroke-width="1" font-family="&quot;Arial&quot;,&quot;Helvetica&quot;,sans-serif" flood-opacity="1" clip-rule="nonzero" src="none" height="68.997391" unicode-bidi="normal" sodipodi:version="0.32" stroke-linejoin="miter" stroke-opacity="1" flood-color="rgb(0, 0, 0)" dominant-baseline="auto" marker-start="none" marker-mid="none">
            
          <defs id="svg4.defs4"/>
            
  
          <metadata id="svg4.metadata7">
    
  </metadata>
            
          <g inkscape:groupmode="layer" id="svg4.layer1" transform="translate(-29.5,-42.959476)" inkscape:label="Ebene 1">
                
            <a id="svg4.a3142" transform="matrix(1.0873906,0,0,1,-4.4741999,0)">
                    
              <path transform="translate(11.586889,5.2908993)" style="fill:none;fill-rule:evenodd;stroke:#000000;stroke-width:1px;stroke-linecap:butt;stroke-linejoin:miter;stroke-opacity:1" sodipodi:cx="38.509369" sodipodi:cy="47.36993" sodipodi:rx="8.5197716" id="svg4.path2160" d="M 47.02914 47.36993 A 8.5197716 9.2013531 0 1 1  29.989597,47.36993 A 8.5197716 9.2013531 0 1 1  47.02914 47.36993 z" sodipodi:ry="9.2013531" sodipodi:type="arc"/>
                  
            </a>
                
            <path style="fill:none" sodipodi:cx="43.962021" sodipodi:cy="48.392303" d="M 47.71072 48.392303 A 3.7486994 0 0 1 1  40.213321,48.392303 A 3.7486994 0 0 1 1  47.71072 48.392303 z" id="svg4.path3134" sodipodi:rx="3.7486994" sodipodi:ry="0" sodipodi:type="arc"/>
                
            <path style="fill:none;fill-rule:evenodd;stroke:#000000;stroke-width:1.24319649px;stroke-linecap:butt;stroke-linejoin:miter;stroke-opacity:1" d="M 50,61.33709 C 50,91.363211 50,92.247838 50,92.247838" id="svg4.path3136"/>
                
            <path style="fill:none;fill-rule:evenodd;stroke:#000000;stroke-width:1px;stroke-linecap:butt;stroke-linejoin:miter;stroke-opacity:1" d="M 69.760668,72.362183 C 69.760668,72.362183 69.760668,72.362183 50.239332,72.362183 C 30.239332,72.362183 30.239332,72.362183 30.239332,72.362183 L 30.239332,72.362183" id="svg4.path3138"/>
                
            <path style="fill:none;fill-rule:evenodd;stroke:#000000;stroke-width:1px;stroke-linecap:butt;stroke-linejoin:miter;stroke-opacity:1" d="M 30,111.45687 C 30,111.45687 30,111.45687 50,92.013532 C 70,111.45687 70,111.45687 70,111.45687" id="svg4.path3140"/>
              
          </g>
          
        </svg>
      </g>
    </g>
    <g font-size="13px" stroke-linecap="butt" transform="matrix(1,0,0,1,-240,-50)" text-rendering="geometricPrecision" font-family="sans-serif" shape-rendering="geometricPrecision" stroke-miterlimit="1.45">
      <text x="1271.8513" xml:space="preserve" y="575.4435" clip-path="url(#clipPath2)" stroke="none">Неавторизованный</text>
    </g>
    <g fill="white" text-rendering="geometricPrecision" shape-rendering="geometricPrecision" transform="matrix(1,0,0,1,-240,-50)" stroke="white">
      <ellipse rx="55" ry="25" clip-path="url(#clipPath2)" cx="1245.2116" cy="481.6899" stroke="none"/>
    </g>
    <g font-size="13px" stroke-linecap="butt" transform="matrix(1,0,0,1,-240,-50)" text-rendering="geometricPrecision" font-family="sans-serif" shape-rendering="geometricPrecision" stroke-miterlimit="1.45">
      <text x="1227.0225" xml:space="preserve" y="486.7966" clip-path="url(#clipPath2)" stroke="none">Войти</text>
      <ellipse rx="55" fill="none" ry="25" clip-path="url(#clipPath2)" cx="1245.2116" cy="481.6899"/>
      <path fill="none" d="M336.9895 172.8591 L421.8303 237.528" clip-path="url(#clipPath2)"/>
      <path fill="none" d="M336.9895 338.8186 L420.2352 280.0227" clip-path="url(#clipPath2)"/>
      <path fill="none" d="M336.9895 390.3425 L427.4609 481.8788" clip-path="url(#clipPath2)"/>
      <path fill="none" d="M336.9895 556.3019 L411.2038 522.4037" clip-path="url(#clipPath2)"/>
      <path fill="none" d="M336.952 570 L504.5578 570 L547.6523 527.3972" clip-path="url(#clipPath2)"/>
      <path fill="none" d="M337.0251 376.4782 L535.546 485.4294" clip-path="url(#clipPath2)"/>
      <path fill="none" d="M336.9691 360 L497.9075 360 L524.8975 391.243" clip-path="url(#clipPath2)"/>
      <path fill="none" stroke-dasharray="6,2" d="M490 414.5133 L450 414.5133 L450 289" clip-path="url(#clipPath2)"/>
      <path stroke-dasharray="6,2" d="M450 285 L444 297 L450 285 L456 297 Z" clip-path="url(#clipPath2)" stroke="none"/>
    </g>
    <g text-rendering="geometricPrecision" shape-rendering="geometricPrecision" transform="matrix(1,0,0,1,-240,-50)">
      <path fill="none" d="M450 285 L444 297 L450 285 L456 297 Z" clip-path="url(#clipPath2)"/>
      <text stroke-linecap="butt" x="386.9707" y="337.7329" clip-path="url(#clipPath2)" font-family="sans-serif" stroke="none" stroke-miterlimit="1.45" xml:space="preserve">&lt;&lt;include&gt;&gt;</text>
      <path fill="none" stroke-miterlimit="1.45" d="M336.9895 137.417 L409.5858 106.957" clip-path="url(#clipPath2)" stroke-linecap="butt"/>
      <path fill="none" stroke-miterlimit="1.45" stroke-dasharray="6,2" d="M450 115 L450 229" clip-path="url(#clipPath2)" stroke-linecap="butt"/>
      <path stroke-miterlimit="1.45" stroke-dasharray="6,2" d="M450 233 L456 221 L450 233 L444 221 Z" clip-path="url(#clipPath2)" stroke-linecap="butt" stroke="none"/>
      <path fill="none" d="M450 233 L456 221 L450 233 L444 221 Z" clip-path="url(#clipPath2)"/>
      <text stroke-linecap="butt" x="453.6964" y="182.867" clip-path="url(#clipPath2)" font-family="sans-serif" stroke="none" stroke-miterlimit="1.45" xml:space="preserve">&lt;&lt;include&gt;&gt;</text>
      <path fill="none" stroke-miterlimit="1.45" d="M337.0144 360 L871.5879 360 L1079.5072 239.0795" clip-path="url(#clipPath2)" stroke-linecap="butt"/>
      <path fill="none" stroke-miterlimit="1.45" d="M337.0082 360 L600 360 L610.5998 414.5133 L617.5 414.5133" clip-path="url(#clipPath2)" stroke-linecap="butt"/>
      <path fill="none" stroke-miterlimit="1.45" d="M1112.587 340.246 L883.0455 570 L336.9907 570" clip-path="url(#clipPath2)" stroke-linecap="butt"/>
      <path fill="none" stroke-miterlimit="1.45" d="M1091.9501 332.8526 L1015.3287 360 L336.9604 360" clip-path="url(#clipPath2)" stroke-linecap="butt"/>
      <path fill="none" stroke-miterlimit="1.45" d="M1106.8783 296.0879 L912.619 150 L336.9778 150" clip-path="url(#clipPath2)" stroke-linecap="butt"/>
      <path fill="none" stroke-miterlimit="1.45" d="M1083.9847 374.7868 L1015.3287 360 L336.9604 360" clip-path="url(#clipPath2)" stroke-linecap="butt"/>
      <path fill="none" stroke-miterlimit="1.45" d="M1109.5884 358.5865 L912.619 150 L336.9778 150" clip-path="url(#clipPath2)" stroke-linecap="butt"/>
      <path fill="none" stroke-miterlimit="1.45" d="M1101.8204 410.3045 L883.0455 570 L336.9907 570" clip-path="url(#clipPath2)" stroke-linecap="butt"/>
      <path fill="none" stroke-miterlimit="1.45" stroke-dasharray="6,2" d="M1220.5687 179.6823 L1179.3015 194.307" clip-path="url(#clipPath2)" stroke-linecap="butt"/>
      <path stroke-miterlimit="1.45" stroke-dasharray="6,2" d="M1175.5312 195.6432 L1188.8462 197.2901 L1175.5312 195.6432 L1184.8378 185.9794 Z" clip-path="url(#clipPath2)" stroke-linecap="butt" stroke="none"/>
      <path fill="none" d="M1175.5312 195.6432 L1188.8462 197.2901 L1175.5312 195.6432 L1184.8378 185.9794 Z" clip-path="url(#clipPath2)"/>
      <text stroke-linecap="butt" x="1153.288" y="165.0604" clip-path="url(#clipPath2)" font-family="sans-serif" stroke="none" stroke-miterlimit="1.45" xml:space="preserve">&lt;&lt;extend&gt;&gt;</text>
      <path fill="none" stroke-miterlimit="1.45" stroke-dasharray="6,2" d="M1222.7878 254.8643 L1177.0258 236.9576" clip-path="url(#clipPath2)" stroke-linecap="butt"/>
      <path stroke-miterlimit="1.45" stroke-dasharray="6,2" d="M1173.3008 235.5001 L1182.2893 245.4603 L1173.3008 235.5001 L1186.6621 234.2853 Z" clip-path="url(#clipPath2)" stroke-linecap="butt" stroke="none"/>
      <path fill="none" d="M1173.3008 235.5001 L1182.2893 245.4603 L1173.3008 235.5001 L1186.6621 234.2853 Z" clip-path="url(#clipPath2)"/>
      <text stroke-linecap="butt" x="1143.3833" y="282.2498" clip-path="url(#clipPath2)" font-family="sans-serif" stroke="none" stroke-miterlimit="1.45" xml:space="preserve">&lt;&lt;extend&gt;&gt;</text>
      <path fill="none" stroke-miterlimit="1.45" stroke-dasharray="6,2" d="M570.6285 584.2253 L570.6285 534.6831" clip-path="url(#clipPath2)" stroke-linecap="butt"/>
      <path stroke-miterlimit="1.45" stroke-dasharray="6,2" d="M570.6285 530.6831 L564.6285 542.6831 L570.6285 530.6831 L576.6285 542.6831 Z" clip-path="url(#clipPath2)" stroke-linecap="butt" stroke="none"/>
      <path fill="none" d="M570.6285 530.6831 L564.6285 542.6831 L570.6285 530.6831 L576.6285 542.6831 Z" clip-path="url(#clipPath2)"/>
      <text stroke-linecap="butt" x="633.569" y="611.3113" clip-path="url(#clipPath2)" font-family="sans-serif" stroke="none" stroke-miterlimit="1.45" xml:space="preserve">&lt;&lt;include&gt;&gt;</text>
      <path fill="none" stroke-miterlimit="1.45" d="M336.9691 360 L497.9075 360 L521.0939 208.3956 L535 208.3956" clip-path="url(#clipPath2)" stroke-linecap="butt"/>
      <path fill="none" stroke-miterlimit="1.45" stroke-dasharray="6,2" d="M709.1989 227.5673 L651.3227 257.2272" clip-path="url(#clipPath2)" stroke-linecap="butt"/>
      <path stroke-miterlimit="1.45" stroke-dasharray="6,2" d="M647.7629 259.0515 L661.1786 258.9183 L647.7629 259.0515 L655.7059 248.239 Z" clip-path="url(#clipPath2)" stroke-linecap="butt" stroke="none"/>
      <path fill="none" d="M647.7629 259.0515 L661.1786 258.9183 L647.7629 259.0515 L655.7059 248.239 Z" clip-path="url(#clipPath2)"/>
      <text stroke-linecap="butt" x="685.1957" y="246.7426" clip-path="url(#clipPath2)" font-family="sans-serif" stroke="none" stroke-miterlimit="1.45" xml:space="preserve">&lt;&lt;include&gt;&gt;</text>
      <path fill="none" stroke-miterlimit="1.45" d="M535 281.2648 L509.5258 281.2648 L497.9075 360 L336.9691 360" clip-path="url(#clipPath2)" stroke-linecap="butt"/>
      <path fill="none" stroke-miterlimit="1.45" d="M336.9771 360 L735.1995 360 L778.2163 393.0045" clip-path="url(#clipPath2)" stroke-linecap="butt"/>
      <path fill="none" stroke-miterlimit="1.45" d="M887.471 292.4599 L735.1995 360 L336.9771 360" clip-path="url(#clipPath2)" stroke-linecap="butt"/>
      <path fill="none" stroke-miterlimit="1.45" d="M336.9851 570 L661.4556 570 L688.8106 528.6253" clip-path="url(#clipPath2)" stroke-linecap="butt"/>
      <path fill="none" stroke-miterlimit="1.45" stroke-dasharray="6,2" d="M781.1761 436.7642 L733.4537 479.1135" clip-path="url(#clipPath2)" stroke-linecap="butt"/>
      <path stroke-miterlimit="1.45" stroke-dasharray="6,2" d="M730.4619 481.7685 L743.4199 478.2912 L730.4619 481.7685 L735.4549 469.3158 Z" clip-path="url(#clipPath2)" stroke-linecap="butt" stroke="none"/>
      <path fill="none" d="M730.4619 481.7685 L743.4199 478.2912 L730.4619 481.7685 L735.4549 469.3158 Z" clip-path="url(#clipPath2)"/>
      <text stroke-linecap="butt" x="756.251" y="483.3875" clip-path="url(#clipPath2)" font-family="sans-serif" stroke="none" stroke-miterlimit="1.45" xml:space="preserve">&lt;&lt;include&gt;&gt;</text>
      <path fill="none" stroke-miterlimit="1.45" stroke-dasharray="6,2" d="M913.9646 250.6941 L899.6837 223.7246" clip-path="url(#clipPath2)" stroke-linecap="butt"/>
      <path stroke-miterlimit="1.45" stroke-dasharray="6,2" d="M897.8118 220.1896 L898.1248 233.6024 L897.8118 220.1896 L908.7298 227.9869 Z" clip-path="url(#clipPath2)" stroke-linecap="butt" stroke="none"/>
      <path fill="none" d="M897.8118 220.1896 L898.1248 233.6024 L897.8118 220.1896 L908.7298 227.9869 Z" clip-path="url(#clipPath2)"/>
      <text stroke-linecap="butt" x="835.876" y="248.7933" clip-path="url(#clipPath2)" font-family="sans-serif" stroke="none" stroke-miterlimit="1.45" xml:space="preserve">&lt;&lt;include&gt;&gt;</text>
      <path fill="none" stroke-miterlimit="1.45" d="M337.0026 150 L811.1673 150 L851.7437 174.9084" clip-path="url(#clipPath2)" stroke-linecap="butt"/>
      <path fill="none" stroke-miterlimit="1.45" stroke-dasharray="6,2" d="M703 281.2648 L678.8351 281.2648" clip-path="url(#clipPath2)" stroke-linecap="butt"/>
      <path stroke-miterlimit="1.45" stroke-dasharray="6,2" d="M674.8351 281.2648 L686.8351 287.2648 L674.8351 281.2648 L686.8351 275.2648 Z" clip-path="url(#clipPath2)" stroke-linecap="butt" stroke="none"/>
      <path fill="none" d="M674.8351 281.2648 L686.8351 287.2648 L674.8351 281.2648 L686.8351 275.2648 Z" clip-path="url(#clipPath2)"/>
      <text stroke-linecap="butt" x="654.8478" y="322.7043" clip-path="url(#clipPath2)" font-family="sans-serif" stroke="none" stroke-miterlimit="1.45" xml:space="preserve">&lt;&lt;include&gt;&gt;</text>
      <path fill="none" stroke-miterlimit="1.45" d="M337.0144 360 L871.5879 360 L912.748 392.7979" clip-path="url(#clipPath2)" stroke-linecap="butt"/>
      <path fill="none" stroke-miterlimit="1.45" d="M308.6392 309.9674 L309.181 293.4272" clip-path="url(#clipPath2)" stroke-linecap="butt"/>
      <path fill="none" stroke-miterlimit="1.45" d="M308.2664 199.9916 L309.3668 243.4316" clip-path="url(#clipPath2)" stroke-linecap="butt"/>
      <path fill="none" stroke-miterlimit="1.45" d="M1330.2117 456.3565 L1330.2117 418.6217" clip-path="url(#clipPath2)" stroke-linecap="butt"/>
      <path fill="none" stroke-miterlimit="1.45" d="M1300.2043 497.6596 L1291.5602 495.1494" clip-path="url(#clipPath2)" stroke-linecap="butt"/>
    </g>
  </g>
</svg>
