<svg width="530" height="371" viewBox="0 0 530 371" fill="none" xmlns="http://www.w3.org/2000/svg">
<circle cx="186" cy="326" r="45" fill="black"/>
<circle cx="186" cy="326" r="28" fill="#C4C4C4"/>
<circle cx="171" cy="313" r="4" fill="black"/>
<circle cx="167" cy="326" r="4" fill="black"/>
<circle cx="185" cy="309" r="4" fill="black"/>
<circle cx="200" cy="313" r="4" fill="black"/>
<circle cx="204" cy="326" r="4" fill="black"/>
<circle cx="200" cy="339" r="4" fill="black"/>
<circle cx="185" cy="343" r="4" fill="black"/>
<circle cx="171" cy="339" r="4" fill="black"/>
<circle cx="451" cy="326" r="45" fill="black"/>
<circle cx="451" cy="326" r="28" fill="#C4C4C4"/>
<circle cx="436" cy="313" r="4" fill="black"/>
<circle cx="432" cy="326" r="4" fill="black"/>
<circle cx="450" cy="309" r="4" fill="black"/>
<circle cx="465" cy="313" r="4" fill="black"/>
<circle cx="469" cy="326" r="4" fill="black"/>
<circle cx="465" cy="339" r="4" fill="black"/>
<circle cx="450" cy="343" r="4" fill="black"/>
<circle cx="436" cy="339" r="4" fill="black"/>
<path d="M111.446 256.647C116.342 263.238 122.113 270.982 128.897 275.757C130.792 277.09 133.542 279.894 135.666 280.501C138.206 281.227 139.627 282.923 142.533 282.923C146.76 282.923 151.8 279.354 155.638 277.548C157.467 276.687 159.324 276.494 161.311 276.321C163.601 276.122 164.865 274.436 166.985 273.965C170.639 273.153 173.482 272.174 177.269 272.174C181.801 272.174 186.342 272.087 190.872 272.174C197.721 272.305 203.117 279.358 208.788 282.193C211.176 283.387 212.695 285.366 215.39 286.208C218.446 287.163 221.263 288.858 224.016 290.388C226.303 291.658 227.563 294.042 229.822 295.464C232.272 297.007 234.265 300.134 236.988 300.971C245.826 303.691 256.678 302.033 265.852 302.033C287.793 302.033 309.734 302.033 331.675 302.033C342.978 302.033 354.28 302.033 365.582 302.033C370.05 302.033 374.518 302.033 378.986 302.033C383.834 302.033 386.946 302.405 389.768 297.819C393.935 291.048 397.469 285.038 404.665 281.131C410.213 278.12 414.413 274.266 420.557 272.439C428.066 270.207 434.256 266.583 442.155 265.472C448.446 264.587 455.451 263.422 461.796 264.676C472.135 266.718 484.456 271.685 492.717 278.444C494.073 279.554 495.593 281.557 496.499 283.056C498.056 285.631 500.103 287.109 501.873 289.492C503.111 291.158 503.652 295.464 506.186 295.464" stroke="black" stroke-linecap="round" stroke-linejoin="round"/>
<path d="M504.992 295.464C507.499 290.502 510.24 285.607 512.225 280.402C515.524 271.75 517.306 262.426 519.225 253.395C521.701 241.742 522.626 231.14 519.889 219.422C517.399 208.765 515.203 199.405 509.172 190.359" stroke="black" stroke-linecap="round" stroke-linejoin="round"/>
<path d="M408.248 97.7953C405.919 106.042 406.981 114.622 404.632 122.844C402.436 130.53 399.526 139.195 399.29 147.229C398.936 159.283 399.29 171.13 399.29 183.193" stroke="black" stroke-linecap="round" stroke-linejoin="round"/>
<path d="M405.262 98.9896C410.605 95.7967 414.743 94.2802 420.59 92.3542C423.613 91.3583 426.627 90.0747 429.78 89.5342C430.163 89.4686 431.329 89.4347 430.941 89.4347" stroke="black" stroke-linecap="round" stroke-linejoin="round"/>
<path d="M411.831 93.0178C418.391 91.9039 424.917 90.6338 431.538 90.0319" stroke="black" stroke-linecap="round" stroke-linejoin="round"/>
<path d="M435.719 92.4206C439.276 92.8159 441.524 92.6031 443.482 95.5392C444.368 96.8679 444.863 97.1981 446.468 97.1981" stroke="black" stroke-linecap="round" stroke-linejoin="round"/>
<path d="M439.302 93.615C450.207 93.615 461.264 97.2203 472.147 95.4065" stroke="black" stroke-linecap="round" stroke-linejoin="round"/>
<path d="M462.592 97.1981C476.731 96.131 490.84 96.0037 504.992 96.0037" stroke="black" stroke-linecap="round" stroke-linejoin="round"/>
<path d="M396.901 181.401C397.983 187.193 400.197 194.935 407.651 195.137C413.33 195.29 418.329 196.098 423.775 194.075C437.722 188.894 452.089 184.191 467.038 183.16C470.2 182.942 473.349 182.251 476.526 182.032C478.858 181.871 480.972 182.596 483.261 182.596C488.516 182.596 493.966 184.592 499.286 185.018C503.442 185.35 507.292 187.967 510.068 190.956C511.732 192.748 512.504 193.168 512.789 195.734C512.942 197.118 513.919 199.301 515.144 199.914" stroke="black" stroke-linecap="round" stroke-linejoin="round"/>
<path d="M421.983 116.905C423.711 113.861 424.863 111.285 427.955 109.739" stroke="black" stroke-linecap="round" stroke-linejoin="round"/>
<path d="M423.775 112.128C423.54 114.5 423.177 116.904 423.177 119.294" stroke="black" stroke-linecap="round" stroke-linejoin="round"/>
<path d="M421.386 119.891C422.353 120.273 430.018 123.96 431.837 122.545C433.639 121.143 434.234 119.605 436.316 118.564C439.173 117.136 449.065 119.294 445.871 119.294" stroke="black" stroke-linecap="round" stroke-linejoin="round"/>
<path d="M424.969 111.531C430.931 109.764 437.3 109.368 442.885 106.886C444.606 106.121 447.252 105.766 449.155 106.189C450.471 106.481 451.572 111.801 452.44 110.933" stroke="black" stroke-linecap="round" stroke-linejoin="round"/>
<path d="M451.843 111.531C457.238 109.425 461.189 108.545 466.772 108.545C467.882 108.545 473.427 107.947 469.758 107.947" stroke="black" stroke-linecap="round" stroke-linejoin="round"/>
<path d="M446.468 120.488C449.136 119.434 451.645 118.1 454.53 118.1C455.423 118.1 456.623 118.312 457.483 118.066C458.209 117.859 458.817 115.92 459.606 115.412C460.69 114.716 462.056 113.632 462.592 112.426C463.472 110.445 467.73 109.309 469.625 108.677C470.762 108.298 472.021 108.446 473.208 108.08C475.07 107.507 473.442 108.079 472.744 108.545" stroke="black" stroke-linecap="round" stroke-linejoin="round"/>
<path d="M430.344 124.071C429.946 126.062 429.548 128.053 429.149 130.043" stroke="black" stroke-linecap="round" stroke-linejoin="round"/>
<path d="M430.941 125.863C430.543 127.854 430.145 129.844 429.747 131.835" stroke="black" stroke-linecap="round" stroke-linejoin="round"/>
<path d="M421.983 122.877C422.704 125.704 423.505 128.462 424.372 131.238" stroke="black" stroke-linecap="round" stroke-linejoin="round"/>
<path d="M426.164 125.863C426.135 128.37 426.376 131.197 425.566 133.626" stroke="black" stroke-linecap="round" stroke-linejoin="round"/>
<path d="M427.358 125.266C426.496 129.289 425.692 132.275 423.177 135.418" stroke="black" stroke-linecap="round" stroke-linejoin="round"/>
<path d="M429.747 124.669C426.82 128.914 423.841 132.963 420.192 136.612" stroke="black" stroke-linecap="round" stroke-linejoin="round"/>
<path d="M429.747 128.252C427.404 130.338 425.035 132.295 422.58 134.224" stroke="black" stroke-linecap="round" stroke-linejoin="round"/>
<path d="M424.969 124.071C424.664 124.452 417.568 133.079 421.685 129.678C423.607 128.09 424.565 125.932 426.163 124.105C428.145 121.84 424.734 125.564 424.372 125.996C422.632 128.07 421.319 130.379 420.789 133.029" stroke="black" stroke-linecap="round" stroke-linejoin="round"/>
<path d="M448.857 136.612C448.408 137.198 444.079 142.878 444.079 142.584" stroke="black" stroke-linecap="round" stroke-linejoin="round"/>
<path d="M449.454 137.21C447.861 139.001 446.269 140.793 444.676 142.584" stroke="black" stroke-linecap="round" stroke-linejoin="round"/>
<path d="M428.552 137.21C429.081 137.911 433.969 142.584 431.538 142.584" stroke="black" stroke-linecap="round" stroke-linejoin="round"/>
<path d="M429.149 136.015C430.011 138.196 430.8 140.369 431.538 142.584" stroke="black" stroke-linecap="round" stroke-linejoin="round"/>
<path d="M431.538 143.779C433.627 153.607 432.732 143.243 432.732 152.139C432.732 154.399 432.135 150.173 432.135 149.452C432.135 148.149 431.059 153.653 433.33 152.139" stroke="black" stroke-linecap="round" stroke-linejoin="round"/>
<path d="M443.482 143.779C444.49 146.252 447.065 153.616 447.065 150.945" stroke="black" stroke-linecap="round" stroke-linejoin="round"/>
<path d="M433.927 153.334C435.261 155.076 436.597 156.601 438.107 158.111" stroke="black" stroke-linecap="round" stroke-linejoin="round"/>
<path d="M436.316 157.514C437.776 158.627 439.279 159.88 440.496 161.097" stroke="black" stroke-linecap="round" stroke-linejoin="round"/>
<path d="M433.33 155.722C433.42 156.633 433.259 162.327 434.524 161.694" stroke="black" stroke-linecap="round" stroke-linejoin="round"/>
<path d="M433.33 156.917C436.56 161.136 436.413 161.551 440.496 161.097C441.83 160.949 443.395 160.33 444.676 159.903" stroke="black" stroke-linecap="round" stroke-linejoin="round"/>
<path d="M441.093 160.5C444.703 159.818 450.116 159.385 453.634 157.978C454.969 157.444 459.252 156.917 457.814 156.917" stroke="black" stroke-linecap="round" stroke-linejoin="round"/>
<path d="M444.079 152.139C444.78 152.139 452.449 152.755 451.843 151.542" stroke="black" stroke-linecap="round" stroke-linejoin="round"/>
<path d="M446.468 150.945C451.007 150.497 455.369 150.348 459.904 150.348C461.35 150.348 466.741 149.72 467.369 150.348" stroke="black" stroke-linecap="round" stroke-linejoin="round"/>
<path d="M449.454 159.305C451.238 159.305 462.524 160.038 463.786 157.514" stroke="black" stroke-linecap="round" stroke-linejoin="round"/>
<path d="M467.967 150.945C475.508 148.71 481.674 147.959 489.465 147.959" stroke="black" stroke-linecap="round" stroke-linejoin="round"/>
<path d="M464.384 159.305C465.708 158.782 473.203 157.09 474.536 155.424C474.755 155.149 477.664 153.988 478.119 153.931C479.273 153.786 480.774 153.044 481.967 152.703C482.87 152.445 485.321 152.139 485.285 152.139" stroke="black" stroke-linecap="round" stroke-linejoin="round"/>
<path d="M488.271 148.556C489.287 149.134 493.646 150.789 493.646 152.438C493.646 152.667 493.646 153.434 493.646 152.736" stroke="black" stroke-linecap="round" stroke-linejoin="round"/>
<path d="M482.896 153.931C485.784 154.787 493.984 157.255 491.854 155.125" stroke="black" stroke-linecap="round" stroke-linejoin="round"/>
<path d="M483.458 147.423C484.208 146.83 486.607 144.329 487.879 144.265C488.419 144.238 490.71 145.376 489.984 145.739" stroke="black" stroke-linecap="round" stroke-linejoin="round"/>
<path d="M492.721 149.739C492.721 148.146 492.511 146.724 492.511 145.154C492.511 144.351 492.458 142.884 492.137 142.16C491.812 141.43 492.001 140.391 491.622 139.634C491.375 139.139 490.298 138.581 489.774 138.581" stroke="black" stroke-linecap="round" stroke-linejoin="round"/>
<path d="M486.195 139.844C487.463 139.477 488.586 139.213 489.891 139.213C490.21 139.213 489.251 139.213 488.932 139.213C487.96 139.213 486.583 139.515 485.774 140.055" stroke="black" stroke-linecap="round" stroke-linejoin="round"/>
<path d="M486.195 139.634C486.034 140.616 485.897 141.595 485.774 142.581" stroke="black" stroke-linecap="round" stroke-linejoin="round"/>
<path d="M485.563 141.739C485.633 142.511 485.704 143.283 485.774 144.055" stroke="black" stroke-linecap="round" stroke-linejoin="round"/>
<path d="M485.984 156.055C486.371 157.49 486.959 159.203 487.037 160.686C487.092 161.735 486.616 162.621 486.616 163.634" stroke="black" stroke-linecap="round" stroke-linejoin="round"/>
<path d="M485.563 156.897C485.563 158.3 485.563 159.704 485.563 161.108" stroke="black" stroke-linecap="round" stroke-linejoin="round"/>
<path d="M485.563 159.213C485.498 159.879 484.515 165.056 485.891 165.306C487.584 165.614 492.758 165.739 491.037 165.739" stroke="black" stroke-linecap="round" stroke-linejoin="round"/>
<path d="M492.09 159.213C491.999 160.636 491.976 162.075 491.832 163.494C491.83 163.513 491.654 164.499 491.715 164.499C491.989 164.499 491.879 162.348 491.879 162.16" stroke="black" stroke-linecap="round" stroke-linejoin="round"/>
<path d="M492.511 152.055C492.511 152.827 492.511 153.599 492.511 154.371" stroke="black" stroke-linecap="round" stroke-linejoin="round"/>
<path d="M493.563 149.95C493.861 150.223 497.104 152.762 496.932 153.107" stroke="black" stroke-linecap="round" stroke-linejoin="round"/>
<path d="M494.195 150.581C495.17 151.731 495.584 152.601 496.09 153.95" stroke="black" stroke-linecap="round" stroke-linejoin="round"/>
<path d="M497.563 156.055C498.576 156.96 501.142 159.046 501.142 160.686" stroke="black" stroke-linecap="round" stroke-linejoin="round"/>
<path d="M493.142 159.213C494.525 159.726 495.753 160.568 497.142 160.944C497.703 161.095 498.348 161.42 498.827 161.739" stroke="black" stroke-linecap="round" stroke-linejoin="round"/>
<path d="M492.721 160.055C494.671 160.83 496.305 161.7 497.774 163.213C498.266 163.72 498.469 164.337 498.873 164.897C499.131 165.254 499.83 165.938 499.037 165.739" stroke="black" stroke-linecap="round" stroke-linejoin="round"/>
<path d="M500.721 160.686C502.17 161.511 503.134 162.312 503.037 164.055C502.996 164.801 500.932 165.529 500.3 165.529" stroke="black" stroke-linecap="round" stroke-linejoin="round"/>
<path d="M501.774 164.687C501.523 164.872 500.113 166.208 499.879 165.739" stroke="black" stroke-linecap="round" stroke-linejoin="round"/>
<path d="M497.563 153.739C499.147 153.46 500.611 153.529 502.195 153.529" stroke="black" stroke-linecap="round" stroke-linejoin="round"/>
<path d="M498.826 153.95C500.111 153.841 501.068 153.928 502.288 154.16C502.873 154.271 503.087 154.354 503.669 154.16" stroke="black" stroke-linecap="round" stroke-linejoin="round"/>
<path d="M503.037 153.318C504.042 154.739 505.016 155.932 505.669 157.529C505.931 158.169 506.224 159.002 507.037 159.002" stroke="black" stroke-linecap="round" stroke-linejoin="round"/>
<path d="M505.774 157.107C506.784 158.646 507.609 160.566 508.944 161.856C509.74 162.626 510.261 163.534 510.827 164.476" stroke="black" stroke-linecap="round" stroke-linejoin="round"/>
<path d="M493.774 167.002C494.067 169.206 494.616 171.507 494.616 173.739" stroke="black" stroke-linecap="round" stroke-linejoin="round"/>
<path d="M493.563 168.266C493.948 171.323 494.592 174.845 494.148 177.95C494.073 178.474 493.407 179.716 494.078 179.587C495.344 179.344 496.494 178.713 497.774 178.5C499.16 178.268 500.412 178.673 501.774 178.839C503.252 179.018 504.75 178.66 506.195 178.371" stroke="black" stroke-linecap="round" stroke-linejoin="round"/>
<path d="M429.984 151.002C429.708 154.033 428.743 156.442 427.808 159.283C427.383 160.575 428.447 159.12 428.72 158.792" stroke="black" stroke-linecap="round" stroke-linejoin="round"/>
<path d="M429.563 155.844C429.413 158.37 429.389 160.715 429.773 163.213" stroke="black" stroke-linecap="round" stroke-linejoin="round"/>
<path d="M430.405 164.476C432.582 167.238 433.687 170.198 435.247 173.318" stroke="black" stroke-linecap="round" stroke-linejoin="round"/>
<path d="M432.089 169.95C432.727 171.562 433.262 173.367 434.288 174.792C434.901 175.644 435.585 176.351 436.101 177.283C437.188 179.246 437.563 181.414 437.563 183.634" stroke="black" stroke-linecap="round" stroke-linejoin="round"/>
<path d="M432.721 173.739C433.636 176.469 434.882 179.199 435.668 181.95" stroke="black" stroke-linecap="round" stroke-linejoin="round"/>
<path d="M448.089 160.686C448.852 162.695 449.724 164.535 450.826 166.371" stroke="black" stroke-linecap="round" stroke-linejoin="round"/>
<path d="M449.773 159.423C450.124 160.125 450.475 160.827 450.826 161.529" stroke="black" stroke-linecap="round" stroke-linejoin="round"/>
<path d="M450.195 160.686C452.508 163.976 452.722 167.21 451.458 171.002" stroke="black" stroke-linecap="round" stroke-linejoin="round"/>
<path d="M453.352 165.108C452.848 167.273 452.382 169.649 452.931 171.844" stroke="black" stroke-linecap="round" stroke-linejoin="round"/>
<path d="M453.142 171.423C454.454 173.669 455.426 176.41 457.142 178.371" stroke="black" stroke-linecap="round" stroke-linejoin="round"/>
<path d="M457.142 177.739C457.702 179.288 458.117 180.992 459.037 182.371" stroke="black" stroke-linecap="round" stroke-linejoin="round"/>
<path d="M459.037 180.687C459.258 181.879 459.469 183.071 459.668 184.266" stroke="black" stroke-linecap="round" stroke-linejoin="round"/>
<path d="M452.51 119.212C453.951 120.315 455.458 121.561 455.458 123.528C455.458 124.989 456.089 126.507 456.089 128.008C456.089 129.566 455.656 131.188 455.037 132.581C454.4 134.013 453.53 135.789 451.984 136.476C451.393 136.738 450.652 137.282 450.195 137.739C449.605 138.328 449.031 138.473 448.3 138.838C447.068 139.454 445.781 139.423 444.405 139.423C443.994 139.423 442.863 139.288 443.879 139.049C444.595 138.88 445.456 139.002 446.195 139.002C446.919 139.002 447.773 138.554 448.464 138.324C449.041 138.131 450.804 137.739 450.195 137.739" stroke="black" stroke-linecap="round" stroke-linejoin="round"/>
<path d="M447.037 139.002C448.369 138.632 449.838 137.949 451.247 137.949" stroke="black" stroke-linecap="round" stroke-linejoin="round"/>
<path d="M445.984 124.897C446.918 124.804 449.729 124.686 448.791 124.686C448.011 124.686 447.232 124.686 446.452 124.686C445.544 124.686 444.356 124.686 446.031 124.686C447.035 124.686 447.747 124.686 446.405 124.686C445.899 124.686 445.352 125.337 445.352 125.844C445.352 127.069 446.127 126.266 446.931 126.055C447.804 125.825 450.524 125.739 449.621 125.739C448.452 125.739 447.282 125.739 446.113 125.739C445.115 125.739 448.114 125.299 449.095 125.481C450.807 125.8 447.562 126.342 447.13 126.113C446.756 125.915 449.165 124.729 449.259 125.528C449.37 126.476 448.755 126.734 448.721 125.528C448.715 125.323 448.768 124.393 449.142 124.943C449.542 125.532 449.302 126.2 449.048 126.78C448.754 127.453 448.931 126.324 448.931 126.055C448.931 125.646 448.821 124.457 448.709 124.85C448.564 125.359 448.736 126.791 447.972 126.791C447.36 126.791 446.809 126.653 446.206 126.593C445.724 126.544 445.302 126.864 444.838 126.78C444.127 126.651 445.903 126.184 446.078 126.172C446.739 126.126 447.482 126.058 448.089 126.324C448.675 126.58 446.791 125.754 446.569 125.154C446.414 124.737 445.473 123.677 445.095 124.476C444.884 124.922 444.557 127.279 445.61 126.955C445.943 126.853 446.385 126.54 446.405 126.16C446.412 126.029 446.223 125.345 446.183 125.446C446.031 125.826 445.699 125.99 445.785 126.464C445.894 127.061 447.233 127.045 447.645 126.885C448.718 126.468 447.468 125.51 447.68 126.253C447.895 127.007 450.396 125.652 449.645 125.318C448.963 125.015 448.589 125.277 448.113 125.832C447.439 126.618 448.236 126.418 448.674 125.996C449.178 125.511 449.191 124.937 448.931 124.312C448.567 123.433 447.909 125.113 447.762 125.481C447.302 126.63 449.295 126.261 448.885 125.154C448.145 123.158 445.074 126.109 446.031 126.487C447.575 127.098 448.918 125.538 446.732 125.329C446.434 125.301 445.586 125.373 445.586 125.832C445.586 125.983 446.031 125.745 445.879 125.318C445.493 124.237 444.439 125.563 444.557 125.622C445.339 126.013 447.706 125.57 446.276 124.581C445.981 124.376 444.931 124.532 444.99 124.581C445.842 125.291 448.082 124.443 449.142 124.897" stroke="black" stroke-linecap="round" stroke-linejoin="round"/>
<path d="M452.089 132.476C453.388 132.038 455.583 131.645 456.721 130.791" stroke="black" stroke-linecap="round" stroke-linejoin="round"/>
<path d="M453.984 131.844C454.841 131.505 455.966 130.848 456.931 130.791C457.104 130.781 456.817 130.809 456.721 131.002" stroke="black" stroke-linecap="round" stroke-linejoin="round"/>
<path d="M452.721 133.739C453.207 133.577 456.014 132.782 455.832 132.85C455.502 132.974 455.179 133.107 454.826 133.107C454.454 133.107 452.34 133.608 453.165 133.517C454.325 133.388 455.454 133.009 456.615 132.908C457.581 132.825 458.248 132.897 456.931 132.897" stroke="black" stroke-linecap="round" stroke-linejoin="round"/>
<path d="M456.931 131.423C457.922 130.824 459.147 130.26 459.984 129.423C460.393 129.015 460.521 129.061 459.879 129.318" stroke="black" stroke-linecap="round" stroke-linejoin="round"/>
<path d="M458.195 130.37C459.84 129.481 460.99 128.998 462.405 128.055" stroke="black" stroke-linecap="round" stroke-linejoin="round"/>
<path d="M456.51 132.265C457.409 132.758 458.185 133.534 459.142 133.002C459.418 132.848 459.879 132.662 459.879 132.476" stroke="black" stroke-linecap="round" stroke-linejoin="round"/>
<path d="M457.142 132.686C459.072 131.979 460.847 131.301 462.616 130.417C463.021 130.214 463.538 129.85 463.984 129.751C464.529 129.629 463.233 130.111 463.037 130.16" stroke="black" stroke-linecap="round" stroke-linejoin="round"/>
<path d="M461.142 131.002C462.195 130.578 463.302 130.136 464.3 129.692C464.614 129.552 465.261 129.318 464.51 129.318" stroke="black" stroke-linecap="round" stroke-linejoin="round"/>
<path d="M460.51 129.318C461.842 128.522 463.151 127.768 464.51 127.049C464.799 126.896 465.613 126.37 465.563 126.37" stroke="black" stroke-linecap="round" stroke-linejoin="round"/>
<path d="M464.931 126.16C464.781 127.683 464.429 128.388 465.773 129.06C466.184 129.266 466.608 129.385 467.037 129.528" stroke="black" stroke-linecap="round" stroke-linejoin="round"/>
<path d="M465.142 127.002C466.321 127.133 467.879 127.042 467.879 128.476C467.879 129.129 467.652 129.323 467.037 129.528" stroke="black" stroke-linecap="round" stroke-linejoin="round"/>
<path d="M463.879 124.476C463.708 123.613 462.855 121.535 463.972 120.897C464.515 120.587 465.22 119.938 465.563 119.423" stroke="black" stroke-linecap="round" stroke-linejoin="round"/>
<path d="M467.458 116.686C466.685 115.645 465.467 114.528 466.312 113.201C466.793 112.444 467.29 112.475 468.089 112.475" stroke="black" stroke-linecap="round" stroke-linejoin="round"/>
<path d="M470.616 112.265C469.822 113.464 469.22 114.385 468.721 115.633" stroke="black" stroke-linecap="round" stroke-linejoin="round"/>
<path d="M468.721 116.897C468.645 117.781 468.374 118.813 468.931 119.587C469.076 119.787 469.284 119.836 469.399 120.055C469.702 120.625 469.757 121.178 469.937 121.786C470.314 123.058 469.034 123.212 468.089 123.212" stroke="black" stroke-linecap="round" stroke-linejoin="round"/>
<path d="M469.984 114.16C470.404 113.394 470.765 112.567 471.247 111.844" stroke="black" stroke-linecap="round" stroke-linejoin="round"/>
<path d="M459.458 136.265C459.5 136.369 460.946 139.55 460.3 138.581" stroke="black" stroke-linecap="round" stroke-linejoin="round"/>
<path d="M459.037 135.844C460.054 135.175 460.756 134.381 461.937 134.745C462.413 134.891 462.256 135.034 462.616 135.259C463.444 135.777 463.037 136.332 463.037 137.107" stroke="black" stroke-linecap="round" stroke-linejoin="round"/>
<path d="M462.826 137.107C462.888 137.437 463.21 140.284 463.668 140.055" stroke="black" stroke-linecap="round" stroke-linejoin="round"/>
<path d="M463.879 139.423C465.363 138.31 467.19 137.107 469.142 137.107" stroke="black" stroke-linecap="round" stroke-linejoin="round"/>
<path d="M469.142 137.107C468.281 138.346 467.473 139.619 466.405 140.686" stroke="black" stroke-linecap="round" stroke-linejoin="round"/>
<path d="M468.089 139.634C467.242 140.263 466.372 140.854 465.563 141.528" stroke="black" stroke-linecap="round" stroke-linejoin="round"/>
<path d="M459.458 140.055C457.73 140.767 457.007 140.834 457.82 142.371C457.983 142.678 458.359 142.584 458.405 143.002C458.417 143.106 458.616 143.71 458.616 143.423" stroke="black" stroke-linecap="round" stroke-linejoin="round"/>
<path d="M458.826 143.213C459.973 143.325 462.461 143.383 463.505 144.218C463.681 144.36 464.924 144.686 465.142 144.686C466.02 144.686 467.019 143.168 467.458 142.534C467.779 142.071 468.048 141.982 467.434 142.289C466.316 142.848 465.281 143.713 464.3 144.476" stroke="black" stroke-linecap="round" stroke-linejoin="round"/>
<path d="M460.3 143.844C455.991 147.043 441.001 153.206 445.984 151.213" stroke="black" stroke-linecap="round" stroke-linejoin="round"/>
<path d="M111.5 256.5C98.5 241.5 71.1 196.5 65.5 136.5C58.5 61.5 108 68 307 75C466.2 80.6 513 82 516.5 82C520.5 83.1667 528.3 87.6 527.5 96" stroke="black"/>
<path d="M527 95.5V107.5C530.833 112 531.9 134.3 505.5 187.5" stroke="black"/>
<path d="M505.5 96H526.5" stroke="black"/>
<path d="M121.256 30.6502L145.082 67.5185L111.201 68.0054L121.858 33.9801L121.897 33.8581L121.872 33.7328L121.256 30.6502Z" fill="#E03F3F" stroke="#E03F3F"/>
<path d="M97.7675 68.2934L110.757 68.1216L121.913 36.4919L97.7675 68.2934Z" fill="#E03F3F" stroke="#E03F3F"/>
<path d="M96.9085 70.248C92.6231 74.7988 85.0198 71.018 85.1984 64.4252L86.3344 22.4933C86.4708 17.4596 91.3288 14.4032 95.7216 16.5875L121.842 29.5758C126.235 31.76 127.437 37.8299 124.165 41.3044L99.1458 67.8722L96.9085 70.248Z" fill="#F98282"/>
<rect x="167.668" y="106.571" width="0.622998" height="0.678437" transform="rotate(-11.2901 167.668 106.571)" fill="#C4C4C4"/>
<path d="M257.155 30.6502L233.329 67.5185L267.21 68.0054L256.553 33.9801L256.515 33.8581L256.54 33.7328L257.155 30.6502Z" fill="#E03F3F" stroke="#E03F3F"/>
<path d="M280.644 68.2934L267.655 68.1216L256.499 36.4919L280.644 68.2934Z" fill="#E03F3F" stroke="#E03F3F"/>
<path d="M281.503 70.248C285.789 74.7988 293.392 71.018 293.213 64.4252L292.077 22.4933C291.941 17.4596 287.083 14.4032 282.69 16.5875L256.57 29.5758C252.177 31.76 250.975 37.8299 254.247 41.3044L279.266 67.8722L281.503 70.248Z" fill="#F98282"/>
<rect width="0.622998" height="0.678437" transform="matrix(-0.980649 -0.195777 -0.195777 0.980649 210.744 106.571)" fill="#C4C4C4"/>
<ellipse cx="190.5" cy="125" rx="89.5" ry="95" fill="#F98383"/>
<g style="mix-blend-mode:soft-light">
<ellipse cx="149" cy="124.5" rx="25" ry="37.5" fill="#380E0E"/>
</g>
<g style="mix-blend-mode:soft-light">
<ellipse cx="230" cy="124.5" rx="25" ry="37.5" fill="#380E0E"/>
</g>
<path d="M64.8311 262.671C66.1817 263.177 71.6258 261.267 74.1791 260.249L67.7485 251.325C61.4728 251.738 49.3785 250.633 51.2065 242.907C52.9535 226.857 52.2848 217.89 51.7321 215.412C43.6073 204.421 27.4616 182.242 27.8768 181.45C28.292 180.657 27.1074 178.101 26.4631 176.922L24.6615 176.987L26.123 179.016C26.3569 179.34 25.9937 180.547 25.783 181.11L24.2081 179.779L20.6049 179.91C21.3029 180.024 23.0138 180.517 24.2737 181.581C25.5336 182.645 25.6655 185.508 25.574 186.807L23.9392 199.078C22.9656 199.779 23.0303 210.826 24.1237 215.584C24.8932 218.933 26.7017 226.175 27.7802 228.356C29.1283 231.083 39.2932 243.479 41.047 245.913C42.4501 247.86 46.9249 252.36 48.9869 254.367C53.5922 257.622 63.2084 263.84 64.8311 262.671Z" fill="#F98282" stroke="#F75454"/>
<path d="M94.132 268.719L122.242 268.431L106.795 249.414C104.976 249.818 100.566 251.897 97.4802 256.98C94.3946 262.064 91.5056 258.613 90.4468 256.252L97.0444 250.893C98.5968 249.632 96.771 238.661 95.664 233.333C90.8784 230.349 80.5454 224.871 77.4989 226.831C73.6908 229.28 68.2815 236.895 66.6561 238.859C65.0308 240.824 67.2127 250.646 70.6076 255.619C74.0025 260.591 78.0769 262.435 82.7089 265.758C86.4145 268.417 91.8683 268.84 94.132 268.719Z" fill="#F98282" stroke="#F75454"/>
<path d="M74.1343 244.682C73.4814 246.348 74.4041 247.67 74.947 248.123C75.8968 249.376 78.1043 251.954 79.3354 252.245C80.2041 252.97 81.7193 252.699 82.3682 252.473C82.8512 252.262 84.6506 251.062 87.9842 247.95C88.5582 246.894 89.7609 244.275 89.9795 242.247C90.2526 239.712 90.3875 241.206 89.7996 240.255C89.3293 239.495 88.0959 238.066 87.5379 237.447C87.327 236.964 86.0903 235.871 82.8313 235.362L80.9294 236.538L79.0724 238.212L76.8073 240.926C76.1883 241.484 74.7871 243.017 74.1343 244.682Z" fill="#FFFEFE" stroke="#F75454"/>
<path d="M27.8623 184.551C28.594 185.952 29.255 187.154 30.0056 188.501C30.5136 189.413 30.7614 190.478 31.2594 191.372C31.7377 192.23 31.7148 193.389 32.1844 194.272C32.4709 194.811 32.3629 195.616 32.5968 196.188C32.8542 196.816 32.9355 197.513 33.0805 198.179C33.4332 199.799 34.0228 201.373 34.1737 203.044C34.3397 204.883 34.6648 206.648 34.8305 208.483C34.9387 209.681 35.1024 210.814 35.3034 211.986C35.4986 213.124 34.9858 214.274 35.3702 215.378C35.9554 217.059 35.2925 219.106 35.4483 220.832" stroke="#F75454" stroke-linecap="round" stroke-linejoin="round"/>
<path d="M32.4744 195.241C33.5745 196.879 34.9461 198.204 35.8462 199.946C36.4131 201.043 37.2154 202.004 37.7467 203.145C38.341 204.422 38.8545 205.779 39.1858 207.15C39.5091 208.488 39.9566 209.804 40.4083 211.101C40.6911 211.913 41.1975 212.906 41.2744 213.758C41.3153 214.211 41.6788 215.052 41.887 215.443C42.3583 216.33 42.3649 217.56 42.699 218.52" stroke="#F75454" stroke-linecap="round" stroke-linejoin="round"/>
<path d="M27.3074 187.585C27.6005 189.046 28.174 190.379 28.5064 191.786C28.6848 192.542 28.8155 193.465 29.1003 194.182C29.4712 195.116 29.6015 196.469 29.692 197.472C29.8034 198.705 30.1073 200.07 30.0011 201.303C29.8671 202.859 29.8322 204.534 29.8172 206.099C29.8025 207.627 29.4617 209.114 29.2215 210.619C28.9299 212.447 28.7396 214.279 28.3147 216.079C28.1396 216.822 28.47 217.658 28.0958 218.346" stroke="#F75454" stroke-linecap="round" stroke-linejoin="round"/>
</svg>
